<?xml version="1.0" encoding="utf-8"?>
<!-- Generator: Adobe Illustrator 19.0.0, SVG Export Plug-In . SVG Version: 6.00 Build 0)  -->
<svg version="1.1" id="Layer_1" xmlns="http://www.w3.org/2000/svg" x="0px" y="0px" width="1400px"
    height="980px" viewBox="0 0 1400 980" enable-background="new 0 0 1400 980" xml:space="preserve">
<g id="XMLID_473_">
	<g id="XMLID_471_">
		<path id="XMLID_928_" d="M665.2,769.6H457c-3.8,0-6.8-3.1-6.8-6.8V568.3c0-3.8,3.1-6.8,6.8-6.8h208.2c3.8,0,6.8,3.1,6.8,6.8v194.4
			C672.1,766.5,669,769.6,665.2,769.6z M463.9,755.9h194.5V575.2H463.9V755.9z"/>
	</g>
	<g id="XMLID_239_">
		<g id="XMLID_462_">
			<g id="XMLID_470_">
				<path id="XMLID_925_" d="M635.3,741.4H486.9c-3.8,0-6.8-3.1-6.8-6.8v-58.1c0-3.8,3.1-6.8,6.8-6.8h148.3c3.8,0,6.8,3.1,6.8,6.8
					v58.1C642.1,738.3,639.1,741.4,635.3,741.4z M493.8,727.7h134.7v-44.4H493.8V727.7z"/>
			</g>
			<g id="XMLID_469_">
				<rect id="XMLID_993_" x="504.3" y="691.8" width="113.7" height="13.7"/>
			</g>
			<g id="XMLID_463_">
				<g id="XMLID_468_">
					<rect id="XMLID_992_" x="517" y="702.3" width="11.5" height="10.8"/>
				</g>
				<g id="XMLID_467_">
					<rect id="XMLID_991_" x="542.6" y="702.3" width="11.5" height="10.8"/>
				</g>
				<g id="XMLID_465_">
					<rect id="XMLID_989_" x="568.2" y="702.3" width="11.5" height="10.8"/>
				</g>
				<g id="XMLID_464_">
					<rect id="XMLID_988_" x="593.8" y="702.3" width="11.5" height="10.8"/>
				</g>
			</g>
		</g>
		<g id="XMLID_455_">
			<g id="XMLID_472_">
				<path id="XMLID_922_" d="M635.3,661.5H486.9c-3.8,0-6.8-3.1-6.8-6.8v-58.1c0-3.8,3.1-6.8,6.8-6.8h148.3c3.8,0,6.8,3.1,6.8,6.8
					v58.1C642.1,658.4,639.1,661.5,635.3,661.5z M493.8,647.8h134.7v-44.4H493.8V647.8z"/>
			</g>
			<g id="XMLID_461_">
				<rect id="XMLID_987_" x="504.3" y="611.9" width="113.7" height="13.7"/>
			</g>
			<g id="XMLID_456_">
				<g id="XMLID_460_">
					<rect id="XMLID_986_" x="517" y="622.4" width="11.5" height="10.8"/>
				</g>
				<g id="XMLID_459_">
					<rect id="XMLID_985_" x="542.6" y="622.4" width="11.5" height="10.8"/>
				</g>
				<g id="XMLID_458_">
					<rect id="XMLID_984_" x="568.2" y="622.4" width="11.5" height="10.8"/>
				</g>
				<g id="XMLID_457_">
					<rect id="XMLID_879_" x="593.8" y="622.4" width="11.5" height="10.8"/>
				</g>
			</g>
		</g>
	</g>
</g>
<g id="XMLID_547_">
	<g id="XMLID_485_">
		<path id="XMLID_919_" d="M354,421.9H195.2c-3.8,0-6.8-3.1-6.8-6.8V256.3c0-3.8,3.1-6.8,6.8-6.8H354c3.8,0,6.8,3.1,6.8,6.8v158.8
			C360.8,418.9,357.8,421.9,354,421.9z M202.1,408.2h145.1V263.1H202.1V408.2z"/>
	</g>
	<g id="XMLID_487_">
		<g id="XMLID_488_">
			<path id="XMLID_918_" d="M206.2,260.3c-3.8,0-6.8-3.1-6.8-6.8V217c0-3.8,3.1-6.8,6.8-6.8c3.8,0,6.8,3.1,6.8,6.8v36.5
				C213,257.3,210,260.3,206.2,260.3z"/>
		</g>
		<g id="XMLID_489_">
			<path id="XMLID_917_" d="M233.6,260.3c-3.8,0-6.8-3.1-6.8-6.8V217c0-3.8,3.1-6.8,6.8-6.8c3.8,0,6.8,3.1,6.8,6.8v36.5
				C240.4,257.3,237.3,260.3,233.6,260.3z"/>
		</g>
		<g id="XMLID_490_">
			<path id="XMLID_916_" d="M260.9,260.3c-3.8,0-6.8-3.1-6.8-6.8V217c0-3.8,3.1-6.8,6.8-6.8c3.8,0,6.8,3.1,6.8,6.8v36.5
				C267.8,257.3,264.7,260.3,260.9,260.3z"/>
		</g>
		<g id="XMLID_491_">
			<path id="XMLID_915_" d="M288.3,260.3c-3.8,0-6.8-3.1-6.8-6.8V217c0-3.8,3.1-6.8,6.8-6.8c3.8,0,6.8,3.1,6.8,6.8v36.5
				C295.1,257.3,292.1,260.3,288.3,260.3z"/>
		</g>
		<g id="XMLID_492_">
			<path id="XMLID_914_" d="M315.7,260.3c-3.8,0-6.8-3.1-6.8-6.8V217c0-3.8,3.1-6.8,6.8-6.8c3.8,0,6.8,3.1,6.8,6.8v36.5
				C322.5,257.3,319.4,260.3,315.7,260.3z"/>
		</g>
		<g id="XMLID_501_">
			<path id="XMLID_913_" d="M343,260.3c-3.8,0-6.8-3.1-6.8-6.8V217c0-3.8,3.1-6.8,6.8-6.8c3.8,0,6.8,3.1,6.8,6.8v36.5
				C349.9,257.3,346.8,260.3,343,260.3z"/>
		</g>
	</g>
	<g id="XMLID_548_">
		<g id="XMLID_555_">
			<path id="XMLID_912_" d="M195.2,411h-36.5c-3.8,0-6.8-3.1-6.8-6.8c0-3.8,3.1-6.8,6.8-6.8h36.5c3.8,0,6.8,3.1,6.8,6.8
				C202.1,407.9,199,411,195.2,411z"/>
		</g>
		<g id="XMLID_554_">
			<path id="XMLID_911_" d="M195.2,383.6h-36.5c-3.8,0-6.8-3.1-6.8-6.8c0-3.8,3.1-6.8,6.8-6.8h36.5c3.8,0,6.8,3.1,6.8,6.8
				C202.1,380.5,199,383.6,195.2,383.6z"/>
		</g>
		<g id="XMLID_553_">
			<path id="XMLID_910_" d="M195.2,356.2h-36.5c-3.8,0-6.8-3.1-6.8-6.8c0-3.8,3.1-6.8,6.8-6.8h36.5c3.8,0,6.8,3.1,6.8,6.8
				C202.1,353.2,199,356.2,195.2,356.2z"/>
		</g>
		<g id="XMLID_552_">
			<path id="XMLID_909_" d="M195.2,328.9h-36.5c-3.8,0-6.8-3.1-6.8-6.8c0-3.8,3.1-6.8,6.8-6.8h36.5c3.8,0,6.8,3.1,6.8,6.8
				C202.1,325.8,199,328.9,195.2,328.9z"/>
		</g>
		<g id="XMLID_551_">
			<path id="XMLID_908_" d="M195.2,301.5h-36.5c-3.8,0-6.8-3.1-6.8-6.8c0-3.8,3.1-6.8,6.8-6.8h36.5c3.8,0,6.8,3.1,6.8,6.8
				C202.1,298.4,199,301.5,195.2,301.5z"/>
		</g>
		<g id="XMLID_550_">
			<path id="XMLID_907_" d="M195.2,274.1h-36.5c-3.8,0-6.8-3.1-6.8-6.8c0-3.8,3.1-6.8,6.8-6.8h36.5c3.8,0,6.8,3.1,6.8,6.8
				C202.1,271,199,274.1,195.2,274.1z"/>
		</g>
	</g>
	<g id="XMLID_556_">
		<g id="XMLID_562_">
			<path id="XMLID_906_" d="M343,458.4c-3.8,0-6.8-3.1-6.8-6.8v-36.5c0-3.8,3.1-6.8,6.8-6.8c3.8,0,6.8,3.1,6.8,6.8v36.5
				C349.9,455.4,346.8,458.4,343,458.4z"/>
		</g>
		<g id="XMLID_561_">
			<path id="XMLID_905_" d="M315.7,458.4c-3.8,0-6.8-3.1-6.8-6.8v-36.5c0-3.8,3.1-6.8,6.8-6.8c3.8,0,6.8,3.1,6.8,6.8v36.5
				C322.5,455.4,319.4,458.4,315.7,458.4z"/>
		</g>
		<g id="XMLID_560_">
			<path id="XMLID_904_" d="M288.3,458.4c-3.8,0-6.8-3.1-6.8-6.8v-36.5c0-3.8,3.1-6.8,6.8-6.8c3.8,0,6.8,3.1,6.8,6.8v36.5
				C295.1,455.4,292.1,458.4,288.3,458.4z"/>
		</g>
		<g id="XMLID_559_">
			<path id="XMLID_903_" d="M260.9,458.4c-3.8,0-6.8-3.1-6.8-6.8v-36.5c0-3.8,3.1-6.8,6.8-6.8c3.8,0,6.8,3.1,6.8,6.8v36.5
				C267.8,455.4,264.7,458.4,260.9,458.4z"/>
		</g>
		<g id="XMLID_558_">
			<path id="XMLID_902_" d="M233.6,458.4c-3.8,0-6.8-3.1-6.8-6.8v-36.5c0-3.8,3.1-6.8,6.8-6.8c3.8,0,6.8,3.1,6.8,6.8v36.5
				C240.4,455.4,237.3,458.4,233.6,458.4z"/>
		</g>
		<g id="XMLID_557_">
			<path id="XMLID_901_" d="M206.2,458.4c-3.8,0-6.8-3.1-6.8-6.8v-36.5c0-3.8,3.1-6.8,6.8-6.8c3.8,0,6.8,3.1,6.8,6.8v36.5
				C213,455.4,210,458.4,206.2,458.4z"/>
		</g>
	</g>
	<g id="XMLID_563_">
		<g id="XMLID_639_">
			<path id="XMLID_900_" d="M393.3,274.1h-36.5c-3.8,0-6.8-3.1-6.8-6.8c0-3.8,3.1-6.8,6.8-6.8h36.5c3.8,0,6.8,3.1,6.8,6.8
				C400.2,271,397.1,274.1,393.3,274.1z"/>
		</g>
		<g id="XMLID_638_">
			<path id="XMLID_899_" d="M393.3,301.5h-36.5c-3.8,0-6.8-3.1-6.8-6.8c0-3.8,3.1-6.8,6.8-6.8h36.5c3.8,0,6.8,3.1,6.8,6.8
				C400.2,298.4,397.1,301.5,393.3,301.5z"/>
		</g>
		<g id="XMLID_637_">
			<path id="XMLID_898_" d="M393.3,328.9h-36.5c-3.8,0-6.8-3.1-6.8-6.8c0-3.8,3.1-6.8,6.8-6.8h36.5c3.8,0,6.8,3.1,6.8,6.8
				C400.2,325.8,397.1,328.9,393.3,328.9z"/>
		</g>
		<g id="XMLID_566_">
			<path id="XMLID_897_" d="M393.3,356.2h-36.5c-3.8,0-6.8-3.1-6.8-6.8c0-3.8,3.1-6.8,6.8-6.8h36.5c3.8,0,6.8,3.1,6.8,6.8
				C400.2,353.2,397.1,356.2,393.3,356.2z"/>
		</g>
		<g id="XMLID_565_">
			<path id="XMLID_896_" d="M393.3,383.6h-36.5c-3.8,0-6.8-3.1-6.8-6.8c0-3.8,3.1-6.8,6.8-6.8h36.5c3.8,0,6.8,3.1,6.8,6.8
				C400.2,380.5,397.1,383.6,393.3,383.6z"/>
		</g>
		<g id="XMLID_564_">
			<path id="XMLID_895_" d="M393.3,411h-36.5c-3.8,0-6.8-3.1-6.8-6.8c0-3.8,3.1-6.8,6.8-6.8h36.5c3.8,0,6.8,3.1,6.8,6.8
				C400.2,407.9,397.1,411,393.3,411z"/>
		</g>
	</g>
</g>
<g id="XMLID_782_">
	<g id="XMLID_640_">
		<path id="XMLID_892_" d="M609.3,279.3h-96.4c-3.8,0-6.8-3.1-6.8-6.8V206c0-3.8,3.1-6.8,6.8-6.8h96.4c3.8,0,6.8,3.1,6.8,6.8v66.5
			C616.2,276.3,613.1,279.3,609.3,279.3z M519.7,265.6h82.8v-52.8h-82.8V265.6z"/>
	</g>
	<g id="XMLID_641_">
		<path id="XMLID_889_" d="M561.1,471.6c-39.7,0-72-32.3-72-72V272.5c0-3.8,3.1-6.8,6.8-6.8h130.3c3.8,0,6.8,3.1,6.8,6.8v127.1
			C633.1,439.3,600.8,471.6,561.1,471.6z M502.8,279.3v120.2c0,32.2,26.2,58.3,58.3,58.3c32.2,0,58.3-26.2,58.3-58.3V279.3H502.8z"
			/>
	</g>
	<g id="XMLID_778_">
		<g id="XMLID_779_">
			<rect id="XMLID_888_" x="538.1" y="232.4" width="14.7" height="13.7"/>
		</g>
		<g id="XMLID_780_">
			<rect id="XMLID_887_" x="569.4" y="232.4" width="14.7" height="13.7"/>
		</g>
	</g>
	<g id="XMLID_781_">
		<path id="XMLID_884_" d="M561.1,434.4c-23.2,0-42-18.9-42-42c0-23.2,18.9-42,42-42c23.2,0,42,18.9,42,42
			C603.2,415.5,584.3,434.4,561.1,434.4z M561.1,364c-15.6,0-28.3,12.7-28.3,28.3c0,15.6,12.7,28.3,28.3,28.3
			c15.6,0,28.3-12.7,28.3-28.3C589.5,376.7,576.8,364,561.1,364z"/>
	</g>
</g>
<g id="XMLID_242_">
	<g id="XMLID_236_">
		<path id="XMLID_876_" d="M1130.8,457.9c-64.7,0-117.3-52.6-117.3-117.3c0-64.7,52.6-117.3,117.3-117.3
			c64.7,0,117.3,52.6,117.3,117.3C1248.1,405.3,1195.5,457.9,1130.8,457.9z M1130.8,237c-57.1,0-103.6,46.5-103.6,103.6
			c0,57.1,46.5,103.6,103.6,103.6s103.6-46.5,103.6-103.6C1234.4,283.4,1187.9,237,1130.8,237z"/>
	</g>
	<g id="XMLID_240_">
		<path id="XMLID_873_" d="M1130.8,368.4c-15.4,0-27.9-12.5-27.9-27.9c0-15.4,12.5-27.9,27.9-27.9c15.4,0,27.9,12.5,27.9,27.9
			C1158.7,355.9,1146.2,368.4,1130.8,368.4z M1130.8,326.4c-7.8,0-14.2,6.4-14.2,14.2c0,7.8,6.4,14.2,14.2,14.2
			c7.8,0,14.2-6.4,14.2-14.2C1145,332.8,1138.6,326.4,1130.8,326.4z"/>
	</g>
	<g id="XMLID_241_">
		<path id="XMLID_870_" d="M1130.8,388.5c-26.4,0-47.9-21.5-47.9-47.9c0-26.4,21.5-47.9,47.9-47.9c26.4,0,47.9,21.5,47.9,47.9
			C1178.7,367,1157.2,388.5,1130.8,388.5z M1130.8,306.4c-18.9,0-34.2,15.3-34.2,34.2c0,18.9,15.3,34.2,34.2,34.2
			c18.9,0,34.2-15.3,34.2-34.2C1165,321.7,1149.7,306.4,1130.8,306.4z"/>
	</g>
</g>
<g id="XMLID_238_">
	<g id="XMLID_244_">
		<path id="XMLID_867_" d="M358.5,775.1H193.6c-3.8,0-6.8-3.1-6.8-6.8V652c0-3.8,3.1-6.8,6.8-6.8h3.1v-2h-3.1
			c-3.8,0-6.8-3.1-6.8-6.8v-29.1c0-1.8,0.7-3.6,2-4.8l44.4-44.4c1.3-1.3,3-2,4.8-2h120.5c3.8,0,6.8,3.1,6.8,6.8v84.3
			c0,3.8-3.1,6.8-6.8,6.8h-1.1v29.3h1.1c3.8,0,6.8,3.1,6.8,6.8v78.2C365.3,772.1,362.2,775.1,358.5,775.1z M200.4,761.4h151.2v-64.5
			h-1.1c-3.8,0-6.8-3.1-6.8-6.8v-43c0-3.8,3.1-6.8,6.8-6.8h1.1v-70.6H240.8L200.4,610v19.5h3.1c3.8,0,6.8,3.1,6.8,6.8V652
			c0,3.8-3.1,6.8-6.8,6.8h-3.1V761.4z"/>
	</g>
	<g id="XMLID_243_">
		<rect id="XMLID_866_" x="246.6" y="582.1" width="13.7" height="26.4"/>
	</g>
	<g id="XMLID_306_">
		<rect id="XMLID_865_" x="270.2" y="582.1" width="13.7" height="26.4"/>
	</g>
	<g id="XMLID_453_">
		<rect id="XMLID_864_" x="293.9" y="582.1" width="13.7" height="26.4"/>
	</g>
	<g id="XMLID_454_">
		<rect id="XMLID_863_" x="317.5" y="582.1" width="13.7" height="26.4"/>
	</g>
</g>
<g id="XMLID_476_">
	<g id="XMLID_482_">
		<path id="XMLID_860_" d="M960.3,443.3H738.4c-3.8,0-6.8-3.1-6.8-6.8V248.6c0-3.8,3.1-6.8,6.8-6.8h221.9c3.8,0,6.8,3.1,6.8,6.8
			v187.8C967.1,440.2,964.1,443.3,960.3,443.3z M745.2,429.6h208.2V255.5H745.2V429.6z"/>
	</g>
	<g id="XMLID_481_">
		<path id="XMLID_857_" d="M930.5,406.8H768.2c-3.8,0-6.8-3.1-6.8-6.8v-87.3c0-3.8,3.1-6.8,6.8-6.8h24.2v-22.4
			c0-3.8,3.1-6.8,6.8-6.8h12.2v-28c0-3.8,3.1-6.8,6.8-6.8h63.6c3.8,0,6.8,3.1,6.8,6.8v28h10.7c3.8,0,6.8,3.1,6.8,6.8v22.4h24.2
			c3.8,0,6.8,3.1,6.8,6.8V400C937.3,403.7,934.3,406.8,930.5,406.8z M775,393.1h148.6v-73.6h-24.2c-3.8,0-6.8-3.1-6.8-6.8v-22.4
			h-10.7c-3.8,0-6.8-3.1-6.8-6.8v-28h-49.9v28c0,3.8-3.1,6.8-6.8,6.8h-12.2v22.4c0,3.8-3.1,6.8-6.8,6.8H775V393.1z"/>
	</g>
	<g id="XMLID_474_">
		<rect id="XMLID_880_" x="756.8" y="269" width="22.8" height="17.3"/>
	</g>
	<g id="XMLID_477_">
		<rect id="XMLID_786_" x="916.4" y="269" width="22.8" height="17.3"/>
	</g>
</g>
<g id="XMLID_483_">
	<g id="XMLID_475_">
		<path id="XMLID_854_" d="M1215.4,780.8h-169.1c-3.8,0-6.8-3.1-6.8-6.8V557.1c0-3.8,3.1-6.8,6.8-6.8h169.1c3.8,0,6.8,3.1,6.8,6.8
			V774C1222.2,777.8,1219.1,780.8,1215.4,780.8z M1053.1,767.1h155.4V563.9h-155.4V767.1z"/>
	</g>
	<g id="XMLID_478_">
		<path id="XMLID_853_" d="M1154.1,780.8c-3.8,0-6.8-3.1-6.8-6.8v-56.2c0-39.7-32.3-71.9-71.9-71.9h-29.1c-3.8,0-6.8-3.1-6.8-6.8
			c0-3.8,3.1-6.8,6.8-6.8h29.1c47.2,0,85.6,38.4,85.6,85.6V774C1161,777.8,1157.9,780.8,1154.1,780.8z"/>
	</g>
	<g id="XMLID_479_">
		<g id="XMLID_484_">
			<path id="XMLID_4_" d="M1107.9,608.7c1.9,1,4.9,2,7.9,2c3.3,0,5-1.4,5-3.4c0-2-1.5-3.1-5.3-4.5c-5.3-1.8-8.7-4.7-8.7-9.3
				c0-5.4,4.5-9.5,12-9.5c3.6,0,6.2,0.8,8.1,1.6l-1.6,5.8c-1.3-0.6-3.5-1.5-6.6-1.5c-3.1,0-4.6,1.4-4.6,3.1c0,2,1.8,2.9,5.9,4.5
				c5.6,2.1,8.2,5,8.2,9.4c0,5.3-4.1,9.8-12.8,9.8c-3.6,0-7.2-0.9-9-1.9L1107.9,608.7z"/>
		</g>
		<g id="XMLID_642_">
			<path id="XMLID_5_" d="M1133.2,608.7c1.9,1,4.9,2,7.9,2c3.3,0,5-1.4,5-3.4c0-2-1.5-3.1-5.3-4.5c-5.3-1.8-8.7-4.7-8.7-9.3
				c0-5.4,4.5-9.5,12-9.5c3.6,0,6.2,0.8,8.1,1.6l-1.6,5.8c-1.3-0.6-3.5-1.5-6.6-1.5c-3.1,0-4.6,1.4-4.6,3.1c0,2,1.8,2.9,5.9,4.5
				c5.6,2.1,8.2,5,8.2,9.4c0,5.3-4.1,9.8-12.8,9.8c-3.6,0-7.2-0.9-9-1.9L1133.2,608.7z"/>
		</g>
		<g id="XMLID_644_">
			<path id="XMLID_6_" d="M1158.4,584.9c2.6-0.4,6-0.7,9.7-0.7c6,0,9.9,1.1,12.9,3.4c3.3,2.4,5.3,6.3,5.3,11.9
				c0,6-2.2,10.2-5.3,12.8c-3.3,2.8-8.4,4.1-14.6,4.1c-3.7,0-6.3-0.2-8.1-0.5V584.9z M1165.5,610.7c0.6,0.1,1.6,0.1,2.5,0.1
				c6.5,0,10.7-3.5,10.7-11.1c0-6.6-3.8-10-9.9-10c-1.6,0-2.6,0.1-3.2,0.3V610.7z"/>
		</g>
	</g>
</g>
<g id="XMLID_784_">
	<g id="XMLID_882_">
		<path id="XMLID_883_" d="M764.3,748.6c-25.2-25.2-25.2-66.1,0-91.2l54.3-54.3c25.2-25.2,66.1-25.2,91.2,0
			c25.2,25.2,25.2,66.1,0,91.2l-54.3,54.3C830.4,773.7,789.4,773.7,764.3,748.6z M900.1,612.8c-19.8-19.8-52.1-19.8-71.9,0L774,667
			c-19.8,19.8-19.8,52.1,0,71.9c19.8,19.8,52.1,19.8,71.9,0l54.3-54.3C919.9,664.8,919.9,632.6,900.1,612.8z"/>
	</g>
	<g id="XMLID_785_">
		<path id="XMLID_881_" d="M860.3,652.6c-2.7-2.7-2.7-7,0-9.7l10.4-10.4c2.7-2.7,7-2.7,9.7,0c2.7,2.7,2.7,7,0,9.7l-10.4,10.4
			C867.3,655.3,862.9,655.3,860.3,652.6z"/>
	</g>
	<g id="XMLID_783_">
		<path id="XMLID_990_" d="M915.1,533L915.1,533c-2.4,2.4-2.6,6.1-0.7,8.9c10.9,15.7,9.4,37.5-4.6,51.5l-9.4,9.4
			c-2.4,2.4-3,6.3-1,9.1c2.5,3.5,7.5,3.8,10.4,0.9l9.7-9.7c18.8-18.8,20.8-48,6.2-69C923.2,530.5,918.1,530,915.1,533z"/>
	</g>
</g>
</svg>
