<?xml version="1.0" standalone="no"?>
<!DOCTYPE svg PUBLIC "-//W3C//DTD SVG 20010904//EN"
 "http://www.w3.org/TR/2001/REC-SVG-20010904/DTD/svg10.dtd">
<svg version="1.0" xmlns="http://www.w3.org/2000/svg"
 width="1280.000000pt" height="640.000000pt" viewBox="0 0 1280.000000 640.000000"
 preserveAspectRatio="xMidYMid meet">
<metadata>
Created by potrace 1.15, written by Peter Selinger 2001-2017
</metadata>
<g transform="translate(0.000000,640.000000) scale(0.100000,-0.100000)"
fill="#000000" stroke="none">
<path d="M12162 5595 c-122 -27 -221 -85 -334 -194 -81 -77 -89 -100 -79 -216
7 -73 15 -100 58 -188 28 -56 92 -165 143 -242 l94 -139 39 -436 c37 -412 39
-464 47 -980 5 -300 15 -777 24 -1060 8 -283 18 -682 22 -886 l7 -372 34 -16
c45 -21 105 -20 133 2 22 18 22 22 36 482 32 1116 44 1627 44 1945 0 290 5
411 36 834 l35 494 128 231 c178 321 171 306 171 377 0 80 -18 116 -95 187
-157 148 -369 217 -543 177z"/>
<path d="M2575 5120 c24 -6 26 -8 8 -9 -13 0 -23 -5 -23 -11 0 -5 10 -11 23
-11 15 -1 10 -4 -13 -9 l-35 -7 40 -3 40 -3 -40 -7 c-36 -6 -37 -7 -10 -9 l30
-2 -25 -14 -25 -14 30 -2 c27 -2 26 -3 -10 -9 l-40 -7 40 -3 40 -3 -40 -7
c-36 -6 -37 -7 -10 -9 l30 -2 -25 -13 -25 -14 30 -5 c27 -4 26 -4 -10 -7 l-40
-3 45 -7 45 -7 -40 -2 c-35 -3 -37 -4 -15 -11 l25 -7 -25 -11 c-24 -10 -23
-11 15 -13 l40 -2 -45 -7 -45 -7 40 -3 40 -3 -40 -7 c-22 -4 -30 -8 -17 -9 12
0 22 -5 22 -11 0 -5 -10 -11 -22 -11 -13 -1 -5 -5 17 -9 l40 -7 -45 -3 -45 -3
45 -7 45 -7 -40 -2 c-38 -2 -39 -3 -15 -13 l25 -11 -30 -7 c-28 -7 -27 -8 15
-10 l45 -3 -50 -7 -50 -7 45 -3 45 -3 -40 -7 -40 -7 35 -9 35 -9 -45 -6 -45
-6 50 -3 50 -3 -50 -7 -50 -7 50 -3 50 -3 -45 -6 -45 -7 35 -11 35 -11 -40 -3
c-38 -2 -37 -3 15 -9 l55 -7 -55 -3 -55 -3 45 -7 c40 -6 41 -7 12 -8 -39 -2
-34 -21 6 -23 20 -1 17 -4 -13 -9 l-40 -7 50 -3 50 -3 -50 -7 -50 -7 40 -3
c26 -2 32 -4 18 -7 -32 -6 -29 -21 5 -26 22 -3 19 -5 -13 -7 l-40 -3 45 -7 45
-7 -45 -3 -45 -3 40 -7 c31 -6 34 -7 13 -9 -16 0 -28 -5 -28 -11 0 -5 12 -11
28 -11 21 -2 18 -3 -13 -9 l-40 -7 50 -3 50 -3 -45 -7 c-43 -7 -43 -7 -10 -9
l35 -2 -30 -14 -30 -13 40 -3 40 -2 -45 -7 -45 -7 45 -3 45 -3 -45 -7 c-43 -7
-44 -7 -10 -9 34 -2 35 -2 10 -13 l-25 -11 30 -7 30 -8 -35 -2 c-34 -3 -34 -3
10 -10 l45 -7 -40 -2 c-35 -3 -37 -4 -15 -11 l25 -7 -25 -11 c-24 -10 -23 -11
15 -13 l40 -2 -40 -7 -40 -7 35 -3 35 -2 -30 -8 c-16 -4 -22 -8 -12 -9 9 0 17
-5 17 -10 0 -5 -8 -12 -17 -14 -11 -3 -6 -6 12 -7 l30 -2 -30 -8 c-28 -7 -28
-8 -5 -9 l25 -1 -5 -857 -5 -858 -75 -6 c-41 -4 -94 -10 -117 -14 l-43 -7 0
-763 c0 -725 1 -764 18 -769 101 -32 473 -32 574 0 17 5 18 44 18 768 l0 764
-32 6 c-18 4 -70 10 -115 13 l-83 6 0 839 c0 559 -3 846 -10 859 -9 17 -7 19
17 20 l28 1 -30 8 -30 8 30 2 c18 1 23 4 13 7 -25 6 -22 23 5 24 15 1 10 4
-13 9 l-35 7 35 3 35 3 -40 7 -40 7 40 2 c38 2 39 3 15 13 l-25 11 25 7 c22 7
20 8 -15 11 l-40 2 45 7 c44 7 44 7 10 10 l-35 2 30 8 30 7 -25 11 c-25 11
-24 11 10 13 34 2 33 2 -10 9 l-45 7 45 3 45 3 -45 7 -45 7 40 2 40 3 -30 13
-30 14 35 2 c33 2 33 2 -10 9 l-45 7 50 3 50 3 -40 7 c-31 6 -34 7 -12 9 15 0
27 6 27 11 0 6 -12 11 -27 11 -22 2 -19 3 12 9 l40 7 -45 3 -45 3 45 7 45 7
-40 3 -40 3 35 7 c34 6 32 9 -10 23 -8 3 3 6 25 8 l40 2 -50 7 -50 7 50 3 50
3 -40 7 c-30 5 -33 8 -13 9 40 2 45 21 6 23 -29 1 -28 2 12 8 l45 7 -50 3 -50
3 50 7 50 7 -40 2 -40 3 35 11 35 11 -45 7 -45 6 50 3 50 3 -50 7 -50 7 50 3
50 3 -45 6 -45 6 35 9 35 9 -40 7 -40 7 45 3 45 3 -50 7 -50 7 45 3 c42 2 43
3 15 10 l-30 7 25 11 c24 10 23 11 -15 13 l-40 2 45 7 45 7 -45 3 -45 3 40 7
c22 4 30 8 18 9 -13 0 -23 6 -23 11 0 6 10 11 23 11 12 1 4 5 -18 9 l-40 7 40
3 40 3 -45 7 -45 7 40 2 c38 2 39 3 15 13 l-25 11 25 7 c22 6 21 8 -15 12
l-40 5 45 3 45 3 -40 7 -40 7 35 2 35 2 -30 14 -30 13 30 3 c27 2 26 2 -10 9
l-40 7 40 3 40 3 -40 7 -40 7 35 2 c34 2 34 3 10 13 l-25 11 25 7 c22 7 20 8
-15 10 l-40 3 40 7 40 7 -35 3 c-25 2 -29 4 -12 7 26 5 30 23 5 24 -12 1 -10
4 7 9 16 5 -16 8 -85 8 -70 0 -99 -3 -80 -8z"/>
<path d="M10546 5036 c-9 -19 -16 -38 -16 -43 0 -5 -20 -72 -44 -149 l-44
-139 -3 -1700 -2 -1700 21 -55 c16 -44 21 -84 24 -200 4 -112 8 -152 22 -178
37 -71 102 -65 137 12 15 36 19 69 20 181 1 117 5 145 22 184 l21 46 -3 1710
-3 1710 -23 75 c-13 41 -33 112 -45 158 -32 128 -54 151 -84 88z"/>
<path d="M4460 4980 c-116 -12 -236 -38 -292 -62 l-48 -20 0 -2023 c0 -1869 1
-2024 17 -2036 24 -21 1152 -21 1176 0 16 12 17 167 17 2036 l0 2022 -37 16
c-47 21 -136 43 -228 57 -92 15 -497 21 -605 10z m520 -39 c19 -5 29 -9 23
-10 -8 -1 -13 -15 -13 -36 l0 -35 -57 7 c-74 10 -387 10 -430 1 -32 -7 -33 -7
-33 26 0 19 -6 36 -12 39 -12 4 30 10 137 21 61 6 345 -4 385 -13z m37 -514
c-1 -73 -3 -10 -3 138 0 149 2 208 3 132 2 -76 2 -198 0 -270z"/>
<path d="M11631 4770 c-1 -3 -9 -97 -18 -210 -10 -136 -17 -381 -20 -727 l-4
-523 -81 0 -81 0 7 -562 c23 -1835 24 -1891 38 -1899 34 -21 261 -24 309 -4
14 5 18 31 23 168 5 163 27 1875 26 2150 l0 147 -80 0 -80 0 0 478 c0 262 -5
536 -10 607 -6 72 -14 186 -19 255 -4 69 -9 123 -10 120z"/>
<path d="M1720 4305 c0 -8 -6 -25 -12 -36 -10 -17 -10 -23 0 -26 7 -3 12 -22
12 -48 0 -26 -5 -45 -12 -48 -10 -3 -10 -9 0 -26 6 -11 12 -46 12 -76 0 -52
-1 -55 -25 -55 -18 0 -25 -5 -25 -19 0 -15 -10 -21 -40 -26 l-40 -7 0 -171 c0
-155 7 -769 26 -2384 l6 -552 57 -13 c76 -17 389 -17 457 0 l52 13 6 202 c3
111 10 722 16 1357 5 635 11 1243 12 1350 l3 194 -37 9 c-23 5 -38 16 -41 28
-3 13 -14 19 -31 19 -20 0 -26 5 -26 22 0 12 8 30 17 41 17 18 17 19 0 32 -18
13 -24 65 -7 65 6 0 10 9 10 20 0 11 -4 20 -10 20 -6 0 -10 28 -10 65 l0 65
-185 0 c-159 0 -185 -2 -185 -15z"/>
<path d="M8968 3700 c-211 -18 -402 -70 -568 -156 -131 -67 -200 -144 -200
-221 1 -117 174 -254 395 -311 105 -28 280 -58 380 -67 103 -9 115 -12 115
-36 0 -22 4 -20 -105 -44 -185 -40 -381 -149 -521 -289 -131 -132 -218 -280
-266 -456 -20 -74 -23 -107 -22 -260 0 -161 2 -182 27 -264 135 -438 515 -730
983 -753 388 -19 751 159 958 471 299 448 198 1027 -237 1360 -127 97 -314
179 -462 203 -41 7 -51 12 -53 31 -3 21 0 22 57 22 185 0 439 56 590 132 178
88 267 202 239 305 -47 175 -511 326 -1033 338 -93 2 -218 0 -277 -5z"/>
<path d="M880 3097 c-15 -35 -41 -103 -56 -152 -24 -79 -28 -111 -31 -263 -5
-157 -7 -173 -24 -183 -18 -9 -19 -23 -19 -199 0 -188 0 -189 -22 -192 -23 -3
-23 -5 -26 -192 -1 -120 1 -193 8 -200 6 -6 10 -161 10 -442 l0 -433 48 -8
c61 -10 393 -10 455 0 l47 8 0 440 c0 292 3 439 10 439 7 0 9 66 8 192 l-3
192 -25 6 -25 6 -3 192 c-2 157 -5 192 -16 192 -12 0 -15 36 -18 198 -3 191
-4 199 -30 252 -15 30 -46 74 -70 97 -45 44 -152 113 -176 113 -7 0 -26 -28
-42 -63z"/>
<path d="M3360 2930 c-25 -4 -57 -13 -72 -19 l-28 -10 -2 -508 -3 -508 -80 -5
-80 -5 0 -520 0 -520 425 0 425 0 0 520 0 520 -82 3 -83 3 -2 511 -3 511 -40
15 c-47 17 -306 26 -375 12z m100 -1320 c0 -194 1 -200 20 -200 18 0 20 -5 15
-37 -30 -206 -43 -348 -33 -360 16 -20 127 -18 135 2 3 9 -4 92 -16 184 -26
207 -26 207 -1 214 20 5 21 11 18 201 l-3 196 36 0 c20 0 84 -3 143 -7 l106
-6 -2 -391 -3 -391 -45 -22 c-69 -35 -151 -47 -310 -47 -159 0 -241 12 -310
47 l-45 22 -3 392 -2 392 72 4 c40 1 108 4 151 5 l77 2 0 -200z"/>
<path d="M11000 2662 c0 -10 -5 -23 -11 -29 -8 -8 -8 -13 0 -17 15 -10 14 -79
-1 -94 -9 -9 -9 -15 0 -24 17 -17 15 -106 -2 -124 -8 -8 -24 -14 -35 -14 -15
0 -21 -6 -21 -22 0 -13 -12 -355 -26 -760 -15 -406 -25 -741 -22 -744 16 -15
246 -25 364 -16 69 5 128 12 130 15 3 3 0 144 -6 314 -7 169 -20 510 -29 758
-15 429 -17 450 -35 453 -38 8 -45 26 -44 113 0 46 0 112 -1 147 l-1 62 -130
0 c-119 0 -130 -2 -130 -18z"/>
<path d="M5490 1635 l0 -795 1270 0 1270 0 0 795 0 795 -1270 0 -1270 0 0
-795z"/>
<path d="M145 2086 c-33 -8 -78 -21 -100 -29 l-40 -14 -3 -555 -2 -556 47 -30
c77 -49 150 -65 267 -60 83 4 112 10 163 32 33 15 73 40 87 55 l26 27 -2 544
-3 544 -75 24 c-95 30 -274 39 -365 18z"/>
</g>
</svg>
