<?xml version="1.0" standalone="no"?>
<!DOCTYPE svg PUBLIC "-//W3C//DTD SVG 20010904//EN"
 "http://www.w3.org/TR/2001/REC-SVG-20010904/DTD/svg10.dtd">
<svg version="1.0" xmlns="http://www.w3.org/2000/svg"
 width="1280.000000pt" height="666.000000pt" viewBox="0 0 1280.000000 666.000000"
 preserveAspectRatio="xMidYMid meet">
<metadata>
Created by potrace 1.15, written by Peter Selinger 2001-2017
</metadata>
<g transform="translate(0.000000,666.000000) scale(0.100000,-0.100000)"
fill="#000000" stroke="none">
<path d="M3034 6070 c-22 -11 -51 -35 -65 -53 l-24 -32 0 -1686 0 -1685 24
-35 c13 -20 38 -44 55 -55 30 -18 64 -19 1035 -24 l1005 -5 -427 -300 c-235
-164 -423 -302 -419 -306 4 -4 57 7 117 26 204 61 444 108 710 137 157 17 772
17 960 0 319 -29 644 -72 953 -126 106 -18 195 -30 198 -25 4 6 -415 261 -906
550 l-75 44 975 5 c1096 6 1013 -1 1068 82 l27 42 0 1677 0 1677 -30 38 c-17
20 -46 45 -65 55 -34 18 -119 19 -2555 19 -2507 0 -2520 0 -2561 -20z m4916
-1775 l0 -1495 -2360 0 -2360 0 0 1495 0 1495 2360 0 2360 0 0 -1495z"/>
<path d="M8930 3610 l0 -2320 1058 2 1057 3 0 2315 0 2315 -1057 3 -1058 2 0
-2320z"/>
<path d="M3475 1407 l-500 -302 0 -55 0 -55 2738 -3 2737 -2 0 54 c0 30 5 56
11 58 5 2 -212 139 -483 305 l-493 303 -1755 -1 -1755 -1 -500 -301z m4469 1
l461 -283 -1343 -3 c-738 -1 -1944 -1 -2680 0 l-1338 3 465 282 466 282 1754
0 1754 1 461 -282z"/>
</g>
</svg>
