<?xml version="1.0" standalone="no"?>
<!DOCTYPE svg PUBLIC "-//W3C//DTD SVG 20010904//EN"
 "http://www.w3.org/TR/2001/REC-SVG-20010904/DTD/svg10.dtd">
<svg version="1.0" xmlns="http://www.w3.org/2000/svg"
 width="1280.000000pt" height="886.000000pt" viewBox="0 0 1280.000000 886.000000"
 preserveAspectRatio="xMidYMid meet">
<metadata>
Created by potrace 1.15, written by Peter Selinger 2001-2017
</metadata>
<g transform="translate(0.000000,886.000000) scale(0.100000,-0.100000)"
fill="#000000" stroke="none">
<path d="M8457 8846 c-91 -33 -164 -109 -187 -197 -7 -24 -9 -1511 -8 -4220
l3 -4184 22 -40 c30 -56 100 -118 159 -141 48 -18 107 -19 2089 -19 l2040 0
53 24 c65 29 125 95 152 168 l20 54 -2 4177 -3 4177 -23 46 c-32 65 -96 125
-159 149 -53 20 -79 20 -2086 20 -1683 -1 -2039 -3 -2070 -14z"/>
<path d="M352 5403 l3 -2258 1448 0 1447 0 2 -172 c1 -95 2 -197 3 -225 l0
-53 -45 -6 c-319 -49 -479 -90 -690 -177 -301 -123 -534 -287 -732 -515 l-50
-57 170 0 170 0 53 45 c347 296 945 473 1524 451 541 -20 1001 -172 1337 -442
l67 -54 146 0 146 0 -12 23 c-22 40 -222 233 -309 297 -333 245 -798 407
-1252 437 l-88 6 0 218 0 219 1294 0 c1171 0 1294 2 1300 16 8 20 8 4468 0
4488 -6 15 -277 16 -2970 16 l-2964 0 2 -2257z m5692 1881 c8 -61 8 -3657 0
-3718 l-7 -46 -2703 0 -2704 0 0 1898 c0 1044 3 1902 7 1905 3 4 1220 7 2703
7 l2697 0 7 -46z"/>
<path d="M7197 2739 c-120 -29 -239 -136 -313 -281 -35 -70 -73 -208 -80 -297
l-7 -78 94 -12 c283 -36 405 -48 417 -38 9 7 12 87 10 361 l-3 351 -40 2 c-22
1 -57 -3 -78 -8z"/>
<path d="M7378 2744 c-5 -4 -8 -164 -8 -354 0 -266 3 -350 13 -358 8 -6 75 -2
207 14 107 13 206 23 219 22 12 -2 -87 -29 -221 -61 l-244 -58 -266 62 c-147
34 -275 58 -284 55 -15 -6 -16 -23 -11 -184 14 -385 119 -686 302 -865 77 -76
150 -109 252 -115 75 -4 87 -2 148 26 251 118 418 503 418 967 1 263 -25 407
-99 563 -80 166 -214 273 -359 288 -33 3 -63 3 -67 -2z"/>
<path d="M5300 1630 c-525 -4 -1808 -13 -2850 -20 -1042 -7 -1898 -15 -1901
-19 -13 -12 -549 -1544 -549 -1568 l0 -23 3536 0 c3362 0 3535 1 3530 18 -3 9
-28 93 -55 187 -54 185 -153 518 -311 1055 -57 190 -105 353 -107 363 -5 15
-21 17 -172 15 -91 -1 -596 -5 -1121 -8z"/>
</g>
</svg>
