<?xml version="1.0" standalone="no"?>
<!DOCTYPE svg PUBLIC "-//W3C//DTD SVG 20010904//EN"
 "http://www.w3.org/TR/2001/REC-SVG-20010904/DTD/svg10.dtd">
<svg version="1.0" xmlns="http://www.w3.org/2000/svg"
 width="1280.000000pt" height="1131.000000pt" viewBox="0 0 1280.000000 1131.000000"
 preserveAspectRatio="xMidYMid meet">
<metadata>
Created by potrace 1.15, written by Peter Selinger 2001-2017
</metadata>
<g transform="translate(0.000000,1131.000000) scale(0.100000,-0.100000)"
fill="#000000" stroke="none">
<path d="M5593 11289 c-5 -18 -11 -20 -42 -15 -102 16 -176 18 -195 4 -32 -25
-11 -54 87 -117 158 -102 174 -115 154 -119 -9 -2 -75 11 -146 28 l-128 32
-167 -22 c-405 -53 -780 -175 -1062 -344 -57 -34 -63 -36 -154 -36 -269 0
-713 -76 -1037 -176 -201 -62 -330 -120 -553 -249 -285 -164 -526 -295 -545
-295 -9 0 -51 9 -93 19 -43 11 -116 25 -163 31 -314 41 -818 -184 -940 -421
-34 -66 -38 -211 -9 -349 28 -138 82 -297 124 -370 46 -78 73 -141 91 -211 20
-77 19 -118 -6 -192 -19 -54 -21 -80 -18 -207 2 -80 0 -307 -5 -505 -7 -321
-10 -364 -27 -397 -26 -51 -64 -187 -89 -315 -11 -59 -32 -153 -45 -208 -25
-104 -45 -239 -45 -311 0 -23 -16 -93 -35 -154 -66 -209 -165 -606 -274 -1090
l-59 -265 -26 -455 c-15 -250 -31 -462 -35 -470 -5 -9 -40 -182 -80 -385 l-71
-370 142 -754 143 -753 190 -115 189 -115 26 30 25 31 35 -17 c26 -13 35 -23
35 -42 0 -20 11 -31 60 -57 84 -45 305 -132 345 -135 30 -3 34 0 44 32 l11 35
103 -19 102 -19 0 -43 c0 -50 -16 -43 185 -83 188 -37 327 -56 348 -48 12 4
17 18 17 42 0 19 4 35 10 35 24 0 296 -64 306 -71 6 -5 14 -27 18 -50 5 -28
13 -42 29 -48 12 -5 168 -36 346 -70 266 -51 326 -60 336 -49 7 7 80 102 164
210 l151 197 0 87 0 87 127 -6 127 -7 235 71 c166 50 244 69 266 65 69 -13
378 -207 800 -502 121 -85 242 -171 269 -191 l50 -38 54 -217 54 -218 145 -75
c79 -41 151 -75 158 -75 8 0 21 14 30 30 9 17 17 30 19 30 6 0 251 -101 255
-106 2 -2 -2 -17 -9 -34 -11 -26 -11 -34 1 -45 10 -9 330 -129 456 -170 13 -4
63 42 63 57 0 14 25 8 149 -40 118 -45 124 -49 135 -82 10 -33 14 -35 76 -47
147 -26 450 -55 464 -44 7 6 16 30 20 52 5 32 10 39 24 35 9 -2 65 -7 124 -11
106 -7 107 -7 110 -33 l3 -27 320 -3 320 -3 30 36 30 35 158 6 c154 7 157 7
157 -14 0 -59 19 -63 150 -31 87 21 334 73 1050 223 1104 231 1303 284 1907
510 439 164 727 319 874 472 85 89 113 138 143 254 62 233 90 477 91 775 0
200 -2 236 -18 278 -23 58 -44 71 -95 57 -20 -5 -41 -10 -47 -10 -6 0 -10 51
-11 133 -1 149 -21 255 -73 370 -71 159 -205 303 -365 392 -116 65 -756 261
-1416 436 -122 32 -637 286 -841 415 l-36 22 14 69 c43 202 -45 343 -214 343
-49 0 -213 -35 -277 -59 -22 -9 -40 2 -166 93 l-142 103 -3 53 c-5 72 -40 122
-105 152 -41 19 -50 27 -50 49 0 14 -11 43 -25 63 -14 21 -20 34 -14 31 6 -4
19 -21 30 -39 10 -17 19 -25 19 -17 0 7 -15 27 -32 45 -30 29 -38 32 -90 30
-32 -1 -65 -7 -73 -14 -20 -17 -42 -56 -26 -46 8 5 8 0 0 -18 l-12 -25 -41 36
c-157 136 -335 287 -413 351 -75 59 -93 79 -93 101 -1 60 -67 165 -98 154 -9
-4 -13 -2 -9 4 5 7 -1 9 -15 6 -19 -4 -20 -3 -8 6 11 8 3 11 -36 11 -28 0 -69
6 -91 14 -22 8 -138 88 -259 178 -120 90 -231 172 -246 182 -16 10 -28 25 -28
32 0 8 -11 41 -25 74 -25 59 -32 87 -16 62 5 -8 8 4 7 31 -1 25 -5 43 -10 39
-5 -3 -7 2 -3 10 10 27 -38 62 -88 63 -24 1 -42 -2 -39 -7 9 -13 -23 -9 -85
12 -32 10 -87 23 -122 27 l-64 8 -68 100 c-38 55 -80 120 -94 144 -25 41 -26
44 -9 71 l16 29 -37 3 c-35 3 -38 6 -101 118 -72 130 -157 310 -196 419 l-26
74 19 53 20 53 -39 12 c-34 10 -42 18 -50 48 -22 83 -30 135 -25 149 3 9 1 18
-4 21 -10 7 -36 184 -47 322 -6 84 -6 86 17 92 13 4 45 7 71 7 26 0 49 3 51 8
2 4 -6 126 -18 271 l-21 264 -65 56 c-137 120 -140 123 -146 170 l-6 44 64 -7
c228 -25 470 -85 564 -141 22 -13 67 -47 100 -75 103 -88 177 -117 325 -126
109 -7 164 4 210 42 63 54 74 104 54 249 -11 76 -14 142 -9 215 5 90 4 114
-15 172 -27 89 -94 161 -225 246 -55 35 -129 93 -165 128 -106 103 -215 134
-350 100 -154 -39 -278 -116 -490 -306 l-72 -64 78 123 79 123 234 99 c128 54
236 101 239 103 6 7 -68 185 -80 192 -4 3 -129 -46 -277 -108 l-268 -113 -102
-163 c-57 -90 -105 -162 -106 -160 -6 6 -25 316 -35 578 -27 706 -57 830 -249
1029 -62 64 -89 75 -98 40z m1357 -1644 c38 -35 113 -93 167 -128 54 -36 112
-79 128 -96 l30 -32 1 -152 c0 -84 4 -176 8 -204 l9 -53 -40 0 c-73 0 -134 27
-217 94 -87 71 -178 119 -301 160 -93 30 -245 62 -340 72 -50 5 -65 10 -61 20
4 10 -3 14 -21 14 l-27 0 35 36 c62 65 245 218 302 252 82 50 166 81 215 82
39 0 49 -6 112 -65z m375 -3135 c10 -11 16 -20 13 -20 -3 0 -13 9 -23 20 -10
11 -16 20 -13 20 3 0 13 -9 23 -20z m786 -697 c13 -16 12 -17 -3 -4 -10 7 -18
15 -18 17 0 8 8 3 21 -13z m689 -527 c0 -2 -12 -11 -27 -20 l-28 -17 24 20
c23 21 31 25 31 17z"/>
<path d="M8828 5303 c6 -2 18 -2 25 0 6 3 1 5 -13 5 -14 0 -19 -2 -12 -5z"/>
<path d="M8962 5180 c0 -14 2 -19 5 -12 2 6 2 18 0 25 -3 6 -5 1 -5 -13z"/>
</g>
</svg>
